<svg width="189" height="46" viewBox="0 0 189 46" fill="none" xmlns="http://www.w3.org/2000/svg">
<g clip-path="url(#clip0)">
<path d="M22.9069 1.0092e-08C17.1449 -0.000232556 12.1633 4.0191 10.9454 9.65094C9.72754 15.2828 12.6034 21.0013 17.8507 23.3818C17.7575 22.4009 17.9516 21.4142 18.4094 20.5417C17.6072 20.1056 16.872 19.5562 16.2267 18.9103C13.3498 16.0333 12.6394 11.6369 14.4637 8.0002C16.288 4.36349 20.2367 2.30434 24.2629 2.89015C28.2892 3.47597 31.4874 6.57501 32.1997 10.5808C32.912 14.5866 30.9782 18.5982 27.4008 20.5361C27.8574 21.4076 28.0515 22.3929 27.9595 23.3725C32.3279 21.3865 35.1342 17.0324 35.1388 12.2338C35.1388 5.47797 29.6627 0.00102845 22.9069 1.0092e-08Z" fill="white" fill-opacity="0.7"/>
<path d="M21.7895 6.70466C18.4015 10.103 17.3096 15.1666 18.996 19.6592C19.0966 19.54 19.2009 19.4226 19.3126 19.3109C19.8969 18.732 20.6135 18.3044 21.4003 18.065C20.1605 13.923 21.8924 9.46817 25.6043 7.2512C29.3161 5.03424 34.0596 5.62161 37.1186 8.67701C40.1775 11.7324 40.7705 16.4751 38.5579 20.1896C36.3453 23.9041 31.8925 25.6412 27.749 24.4063C27.5056 25.1942 27.0727 25.9104 26.4882 26.4921C26.3765 26.6039 26.261 26.71 26.1418 26.8087C31.8408 28.9475 38.2454 26.5711 41.1698 21.2324C44.0942 15.8938 42.6488 9.21726 37.7782 5.56618C32.9076 1.91509 26.0937 2.40028 21.7895 6.70466Z" fill="white" fill-opacity="0.7"/>
<path d="M6.70452 6.70461C2.61025 10.7741 1.9184 17.152 5.04483 22.0048C8.17125 26.8575 14.2648 28.8639 19.6627 26.818C19.5413 26.7184 19.4251 26.6128 19.3145 26.5014C18.7332 25.9154 18.3042 25.1961 18.0648 24.4062C13.9229 25.6443 9.4692 23.9107 7.25427 20.1981C5.03934 16.4856 5.62919 11.743 8.68604 8.68613C11.7429 5.62928 16.4855 5.03942 20.1981 7.25436C23.9106 9.46929 25.6442 13.923 24.4061 18.0649C25.1941 18.3073 25.9104 18.7396 26.492 19.3239C26.6037 19.4356 26.7099 19.5511 26.8086 19.6703C28.8519 14.275 26.8475 8.18545 21.9991 5.05857C17.1507 1.9317 10.7766 2.61769 6.70452 6.70461Z" fill="white" fill-opacity="0.7"/>
<path d="M20.5417 27.3969C18.4849 31.2006 14.1077 33.122 9.9156 32.0611C5.72347 31.0003 2.78704 27.2282 2.78704 22.904C2.78704 18.5797 5.72347 14.8076 9.9156 13.7468C14.1077 12.6859 18.4849 14.6073 20.5417 18.411C21.4135 17.9552 22.3986 17.7612 23.3781 17.8523C20.9993 12.6234 15.2963 9.76095 9.68206 10.978C4.06785 12.195 0.0621338 17.1621 0.0621338 22.9068C0.0621338 28.6514 4.06785 33.6185 9.68206 34.8355C15.2963 36.0526 20.9993 33.1901 23.3781 27.9612C22.398 28.0508 21.4129 27.8549 20.5417 27.3969Z" fill="white" fill-opacity="0.7"/>
<path d="M26.492 26.4921C25.9104 27.0764 25.1941 27.5087 24.4062 27.751C25.6411 31.8945 23.9039 36.3473 20.1895 38.5599C16.475 40.7725 11.7323 40.1795 8.6769 37.1205C5.6215 34.0616 5.03412 29.3181 7.25109 25.6063C9.46806 21.8944 13.9229 20.1625 18.0649 21.4023C18.3069 20.6137 18.7393 19.8967 19.3238 19.3146C19.4356 19.2029 19.551 19.0986 19.6702 18.9999C14.278 16.9737 8.20283 18.9836 5.08298 23.8259C1.96314 28.6682 2.64391 35.0309 6.7176 39.1035C10.7913 43.1762 17.1542 43.8553 21.9957 40.7342C26.8371 37.6131 28.8455 31.5374 26.8179 26.1457C26.7153 26.2667 26.6066 26.3823 26.492 26.4921Z" fill="white" fill-opacity="0.7"/>
<path d="M27.3951 25.2703C31.1842 27.3259 33.0947 31.691 32.0343 35.8693C30.9739 40.0476 27.213 42.9732 22.9022 42.9732C18.5915 42.9732 14.8305 40.0476 13.7701 35.8693C12.7097 31.691 14.6203 27.3259 18.4093 25.2703C17.9517 24.3977 17.7576 23.411 17.8506 22.4302C12.5992 24.81 9.71969 30.5311 10.937 36.1667C12.1544 41.8022 17.1386 45.8247 22.9041 45.8247C28.6696 45.8247 33.6538 41.8022 34.8711 36.1667C36.0885 30.5311 33.209 24.81 27.9576 22.4302C28.0492 23.4114 27.8538 24.398 27.3951 25.2703Z" fill="white" fill-opacity="0.7"/>
<path d="M26.1455 18.9958C26.2647 19.0964 26.3802 19.2007 26.4919 19.3124C27.0762 19.894 27.5086 20.6103 27.7509 21.3982C31.8932 20.1621 36.3459 21.897 38.5602 25.6096C40.7744 29.3223 40.1846 34.0645 37.1283 37.1217C34.0721 40.1788 29.3301 40.77 25.6167 38.5569C21.9034 36.3437 20.1673 31.8915 21.4021 27.7488C20.6139 27.505 19.8972 27.0722 19.3144 26.488C19.2027 26.3763 19.0984 26.2608 18.9997 26.1416C16.9725 31.5336 18.9814 37.6093 23.8233 40.73C28.6652 43.8507 35.0282 43.1708 39.1014 39.0975C43.1747 35.0243 43.8546 28.6613 40.7339 23.8194C37.6132 18.9775 31.5375 16.9686 26.1455 18.9958Z" fill="white" fill-opacity="0.7"/>
<path d="M33.5725 10.6677C28.773 10.673 24.4187 13.4809 22.4338 17.8508C23.4134 17.7586 24.3987 17.9527 25.2702 18.4095C27.3264 14.6087 31.7009 12.6894 35.8901 13.7499C40.0793 14.8105 43.0135 18.5801 43.0135 22.9015C43.0135 27.2228 40.0793 30.9924 35.8901 32.053C31.7009 33.1135 27.3264 31.1942 25.2702 27.3934C24.3994 27.8502 23.4147 28.0442 22.4357 27.9522C24.9525 33.4937 31.1606 36.3418 37.0027 34.6352C42.8448 32.9286 46.5434 27.1864 45.6814 21.1615C44.8193 15.1366 39.6588 10.662 33.5725 10.6621V10.6677Z" fill="white" fill-opacity="0.7"/>
<path d="M22.9069 8.26514C18.4323 8.26822 14.8052 11.8937 14.8001 16.3682C14.7948 18.5178 15.6491 20.5804 17.1727 22.0968C17.3821 22.3049 17.6022 22.5019 17.832 22.6872C17.8765 21.6475 18.24 20.6468 18.873 19.821C18.045 18.8615 17.5907 17.6356 17.5936 16.3682C17.591 14.0145 19.1382 11.94 21.395 11.2715C23.6517 10.6029 26.0793 11.4999 27.3591 13.4752C28.639 15.4505 28.4656 18.0326 26.9333 19.8191C27.5663 20.645 27.9298 21.6457 27.9743 22.6853C28.2015 22.5003 28.4207 22.3041 28.6317 22.0968C30.9477 19.7799 31.6408 16.2963 30.3879 13.2693C29.1351 10.2424 26.1829 8.26758 22.9069 8.26514Z" fill="white" fill-opacity="0.7"/>
<path d="M21.7895 12.5524C20.0528 14.289 19.1997 16.7209 19.4709 19.1618C20.2381 18.4589 21.2042 18.0106 22.2365 17.8787C22.4491 15.0597 24.8339 12.9021 27.66 12.9718C30.4861 13.0415 32.7616 15.3141 32.835 18.1401C32.9084 20.9661 30.7539 23.3537 27.9353 23.57C27.8003 24.6008 27.3502 25.5648 26.6465 26.33C30.3993 26.7364 33.9352 24.4964 35.1712 20.9298C36.4072 17.3632 35.0156 13.4157 31.8161 11.4127C28.6167 9.40973 24.4578 9.88245 21.7895 12.5524Z" fill="white" fill-opacity="0.7"/>
<path d="M29.44 14.8003C26.9841 14.8009 24.6615 15.917 23.1266 17.8341C24.1653 17.8778 25.165 18.2414 25.989 18.8751C28.134 17.0374 31.3427 17.2022 33.288 19.25C35.2334 21.2978 35.2334 24.5108 33.288 26.5586C31.3427 28.6064 28.134 28.7712 25.989 26.9335C25.1645 27.5676 24.164 27.9312 23.1248 27.9745C25.4893 30.9185 29.5742 31.8385 32.9726 30.1924C36.3709 28.5463 38.1813 24.7707 37.3371 21.0903C36.4928 17.4098 33.2179 14.8007 29.4418 14.8003H29.44Z" fill="white" fill-opacity="0.7"/>
<path d="M26.6464 19.4764C27.3511 20.241 27.8013 21.2053 27.9352 22.2364C30.7528 22.4529 32.9067 24.8392 32.8344 27.6642C32.7622 30.4892 30.4892 32.7622 27.6642 32.8344C24.8392 32.9067 22.4529 30.7528 22.2364 27.9352C21.2057 27.7998 20.2419 27.3497 19.4764 26.6464C19.1009 30.0653 20.9246 33.3487 24.0255 34.8366C27.1264 36.3245 30.8288 35.6928 33.2608 33.2608C35.6928 30.8288 36.3245 27.1264 34.8366 24.0255C33.3487 20.9246 30.0653 19.1009 26.6464 19.4764Z" fill="white" fill-opacity="0.7"/>
<path d="M26.9352 25.9872C28.7751 28.1335 28.6107 31.345 26.5613 33.2921C24.512 35.2393 21.2963 35.2393 19.2469 33.2921C17.1975 31.345 17.0332 28.1335 18.8731 25.9872C18.2395 25.1625 17.8765 24.1621 17.8339 23.123C17.6034 23.3061 17.3839 23.5026 17.1765 23.7115C14.5867 26.3043 14.0605 30.3129 15.8934 33.4862C17.7264 36.6595 21.4616 38.2068 25.0016 37.259C28.5416 36.3113 31.0041 33.1047 31.0063 29.44C31.0127 27.2902 30.1583 25.2272 28.6336 23.7115C28.4242 23.5034 28.2042 23.3063 27.9744 23.1211C27.9305 24.1605 27.5677 25.1612 26.9352 25.9872Z" fill="white" fill-opacity="0.7"/>
<path d="M23.5718 27.9353C23.3564 30.754 20.9695 32.9093 18.1434 32.8368C15.3174 32.7644 13.0441 30.4896 12.9735 27.6635C12.9028 24.8374 15.0597 22.4519 17.8786 22.2384C18.0129 21.2072 18.4623 20.2426 19.1655 19.4765C15.7477 19.1026 12.4661 20.9268 10.9796 24.027C9.49303 27.1272 10.1253 30.828 12.5567 33.2588C14.9882 35.6897 18.6892 36.321 21.789 34.8336C24.8888 33.3462 26.7122 30.0642 26.3374 26.6466C25.5701 27.3506 24.6043 27.8006 23.5718 27.9353Z" fill="white" fill-opacity="0.7"/>
<path d="M19.8191 26.9334C18.8593 27.7597 17.6347 28.2137 16.3682 28.2128C14.0137 28.2172 11.9375 26.6704 11.2679 24.4131C10.5984 22.1558 11.4955 19.7271 13.4716 18.447C15.4477 17.1669 18.0309 17.3411 19.8172 18.875C20.6415 18.2417 21.6411 17.8782 22.6797 17.834C20.315 14.8909 16.2305 13.972 12.8332 15.6187C9.4359 17.2654 7.62688 21.0409 8.47216 24.7204C9.31745 28.3999 12.5928 31.0074 16.3682 31.0064C18.5167 31.0077 20.5771 30.1525 22.093 28.63C22.3013 28.4227 22.4978 28.2038 22.6815 27.9744C21.6432 27.9294 20.6438 27.566 19.8191 26.9334Z" fill="white" fill-opacity="0.7"/>
<path d="M12.5522 12.5543C10.1165 14.9838 9.48181 18.6871 10.9695 21.789C12.4571 24.8909 15.7423 26.7142 19.1616 26.3357C18.4593 25.5687 18.0111 24.6034 17.8785 23.572C15.0587 23.3595 12.9007 20.9737 12.9712 18.1468C13.0418 15.3199 15.3162 13.0448 18.1431 12.9733C20.9699 12.9018 23.3565 15.0591 23.5698 17.8788C24.6005 18.0131 25.5644 18.4625 26.3298 19.1656C26.7065 15.747 24.8825 12.4635 21.7811 10.9769C18.6796 9.49029 14.9775 10.1251 12.5485 12.5599L12.5522 12.5543Z" fill="white" fill-opacity="0.7"/>
<path d="M17.8283 22.9064C17.8273 21.5592 18.3621 20.2668 19.3147 19.3142C20.2673 18.3616 21.5597 17.8268 22.9069 17.8278C23.0354 17.8278 23.1602 17.8278 23.2794 17.8427C21.7209 16.8889 19.7118 17.1273 18.4198 18.4193C17.1278 19.7114 16.8894 21.7204 17.8432 23.2789C17.8339 23.1597 17.8283 23.0331 17.8283 22.9064Z" fill="white" fill-opacity="0.7"/>
<path d="M19.3144 26.4916C17.3333 24.5093 17.3333 21.2965 19.3144 19.3141C19.4038 19.2247 19.5007 19.1391 19.5938 19.0571C17.81 19.479 16.55 21.0717 16.55 22.9047C16.55 24.7378 17.81 26.3304 19.5938 26.7524C19.5007 26.6704 19.4057 26.5829 19.3144 26.4916Z" fill="white" fill-opacity="0.7"/>
<path d="M22.9069 27.9797C20.1038 27.9807 17.8303 25.7097 17.8283 22.9066C17.8283 22.78 17.8283 22.6534 17.8432 22.5342C16.897 24.0925 17.139 26.0956 18.429 27.3838C19.7189 28.672 21.7224 28.9112 23.2794 27.9629C23.1602 27.9722 23.0335 27.9797 22.9069 27.9797Z" fill="white" fill-opacity="0.7"/>
<path d="M26.4919 26.4918C25.5404 27.4442 24.2493 27.9793 22.9031 27.9793C21.5569 27.9793 20.2659 27.4442 19.3144 26.4918C19.225 26.4025 19.1393 26.3056 19.0574 26.2144C19.4793 27.9982 21.0719 29.2581 22.905 29.2581C24.738 29.2581 26.3307 27.9982 26.7526 26.2144C26.6707 26.3056 26.5831 26.4006 26.4919 26.4918Z" fill="white" fill-opacity="0.7"/>
<path d="M27.9799 22.9069C27.9769 25.7074 25.7074 27.9769 22.9069 27.9799C22.7803 27.9799 22.6536 27.9799 22.5344 27.9632C24.0945 28.9245 26.1107 28.6879 27.4058 27.3915C28.7009 26.095 28.9354 24.0786 27.9725 22.5195C27.9725 22.6462 27.9799 22.7747 27.9799 22.9069Z" fill="white" fill-opacity="0.7"/>
<path d="M26.492 19.314C27.4443 20.2655 27.9794 21.5565 27.9794 22.9027C27.9794 24.2489 27.4443 25.5399 26.492 26.4914C26.4026 26.5827 26.3057 26.6665 26.2145 26.7484C27.9983 26.3265 29.2582 24.7339 29.2582 22.9008C29.2582 21.0678 27.9983 19.4751 26.2145 19.0532C26.3057 19.137 26.4007 19.2227 26.492 19.314Z" fill="white" fill-opacity="0.7"/>
<path d="M22.9069 17.828C25.71 17.83 27.981 20.1035 27.9799 22.9066C27.9799 23.0351 27.9799 23.1599 27.9632 23.2791C28.9265 21.719 28.6907 19.7013 27.3938 18.4052C26.0968 17.1091 24.079 16.8748 22.5195 17.8392C22.6462 17.8336 22.7747 17.828 22.9069 17.828Z" fill="white" fill-opacity="0.7"/>
<path d="M19.3144 19.3142C21.2968 17.333 24.5096 17.333 26.4919 19.3142C26.5832 19.4036 26.667 19.5004 26.7489 19.5935C26.327 17.8097 24.7344 16.5498 22.9013 16.5498C21.0683 16.5498 19.4756 17.8097 19.0537 19.5935C19.1375 19.5004 19.2232 19.4054 19.3144 19.3142Z" fill="white" fill-opacity="0.7"/>
<path d="M78.5036 23.028C78.5036 27.5591 77.5966 30.1217 75.5648 31.5278V31.66L78.971 31.5352V33.9731H67.566C59.6007 33.9731 56.6936 31.4086 56.6936 23.0355C56.6936 14.6624 59.5951 11.8428 67.6032 11.8428C75.6598 11.8428 78.5036 14.6568 78.5036 23.028ZM67.5977 31.5948C73.816 31.5948 75.4717 29.658 75.4717 23.028C75.4717 16.4353 73.816 14.2191 67.5977 14.2191C61.3793 14.2191 59.7255 16.4353 59.7255 23.028C59.7255 29.6524 61.3811 31.5893 67.6032 31.5893L67.5977 31.5948Z" fill="white"/>
<path d="M84.0959 24.2783H94.3389V26.6543H84.0959V24.2783Z" fill="white"/>
<path d="M108.905 33.9656C101.595 33.9656 99.7791 29.0899 99.7791 22.9982C99.7791 16.9065 101.561 12.0923 109.059 12.0923H117.527V14.4686H110.029C104.562 14.4686 102.813 17.061 102.813 22.9982C102.813 28.9354 104.5 31.5892 109.873 31.5892H117.842V33.9656H108.905Z" fill="white"/>
<path d="M130.714 33.9663V14.4693H121.872V12.0923H142.47V14.4693H133.62V33.9663H130.714Z" fill="white"/>
<path d="M147.125 15.4035C147.125 13.0607 148.282 12.0923 150.344 12.0923H160.46C164.49 12.0923 165.771 14.6567 165.771 18.7167C165.771 22.9051 164.583 25.6856 160.804 25.6856H157.266V25.8401L166.233 33.9656H162.365L153.985 26.2778C153.579 25.9053 153.173 25.436 153.173 24.9034V24.3968C153.173 23.7394 153.642 23.3018 154.476 23.3018H159.819C162.475 23.3018 162.726 21.3649 162.726 18.7092C162.726 15.9902 162.289 14.4612 159.352 14.4612H151.595C150.593 14.4612 150.033 14.7722 150.033 15.9511V33.9488H147.125V15.4035ZM174.927 33.9656C173.332 33.9656 172.146 33.3398 172.146 31.3397V12.0923H175.061V30.2763C175.061 31.2447 175.374 31.5892 176.435 31.5892H188.559V33.9656H174.927Z" fill="white"/>
</g>
<defs>
<clipPath id="clip0">
<rect width="189" height="46" fill="white"/>
</clipPath>
</defs>
</svg>
